<svg id="Layer_1" data-name="Layer 1" xmlns="http://www.w3.org/2000/svg" viewBox="0 0 96 96"><defs><style>.cls-1{fill:#ccd1dc;}.cls-2{fill:#dee1e7;}.cls-3{fill:#f3f4f5;}.cls-4{fill:#6a6e86;}.cls-5{fill:#797c92;}.cls-6{fill:#5c5f7d;}.cls-7{fill:#39426a;}</style></defs><title>soccer, football, sport, game, activity, exercise</title><path class="cls-1" d="M95,48A47,47,0,1,1,1,48c0-.2,0-.4,0-.59a47,47,0,0,1,94,0C95,47.6,95,47.8,95,48Z"/><path class="cls-2" d="M94,44a41.05,41.05,0,0,1-9.59,26.29c-.34.42-.7.83-1,1.23A46.37,46.37,0,0,1,64.21,84.26c-1,.36-2.1.69-3.17,1a49.46,49.46,0,0,1-26.08,0c-1.07-.3-2.13-.63-3.17-1A46.27,46.27,0,0,1,12.65,71.52c-.36-.4-.72-.81-1.06-1.23A41.05,41.05,0,0,1,2,44c0-.18,0-.37,0-.54A40.91,40.91,0,0,1,9.27,20.77,46,46,0,0,1,35.32,2.66a49.26,49.26,0,0,1,25.36,0A46,46,0,0,1,86.73,20.77,40.91,40.91,0,0,1,94,43.46C94,43.63,94,43.82,94,44Z"/><path class="cls-3" d="M89,39a30.28,30.28,0,0,1-1.33,8.89A33.06,33.06,0,0,1,80.45,60.4a41.32,41.32,0,0,1-18,11.37,47.93,47.93,0,0,1-28.9,0,41.32,41.32,0,0,1-18-11.37A33.06,33.06,0,0,1,8.33,47.89,30.28,30.28,0,0,1,7,39c0-.15,0-.3,0-.44a30.83,30.83,0,0,1,4.76-16c.52-.86,1.1-1.7,1.71-2.52A40.47,40.47,0,0,1,34,6.12c.9-.29,1.81-.54,2.73-.77a48.05,48.05,0,0,1,22.62,0c.92.23,1.83.48,2.73.77a40.47,40.47,0,0,1,20.48,14c.61.82,1.19,1.66,1.71,2.52a30.83,30.83,0,0,1,4.76,16C89,38.7,89,38.85,89,39Z"/><polygon class="cls-4" points="62.56 45.27 57 62.39 39 62.39 33.44 45.27 35.23 43.97 48 34.69 60.77 43.97 62.56 45.27"/><path class="cls-5" d="M60.77,44l-2.1,6.48A11.22,11.22,0,0,1,48,58.21h0a11.22,11.22,0,0,1-10.67-7.76L35.23,44,48,34.69Z"/><path class="cls-6" d="M62.56,7.73,48,18.31,33.44,7.73,35,2.81A47.3,47.3,0,0,1,61,2.81Z"/><path class="cls-5" d="M62.56,7.73,48,18.31,33.44,7.73,34,6.12c.9-.29,1.81-.54,2.73-.77a48.05,48.05,0,0,1,22.62,0c.92.23,1.83.48,2.73.77Z"/><path class="cls-4" d="M95,47.41l-4,2.9L76.44,39.73,82,22.61h5.57A46.83,46.83,0,0,1,95,47.41Z"/><path class="cls-4" d="M19.56,39.73,5,50.31l-4-2.9a46.83,46.83,0,0,1,7.42-24.8H14Z"/><path class="cls-5" d="M89,39a30.28,30.28,0,0,1-1.33,8.89L76.44,39.73,82,22.61h2.23a30.83,30.83,0,0,1,4.76,16C89,38.7,89,38.85,89,39Z"/><path class="cls-5" d="M19.56,39.73,8.33,47.89A30.28,30.28,0,0,1,7,39c0-.15,0-.3,0-.44a30.83,30.83,0,0,1,4.76-16H14Z"/><path class="cls-6" d="M85.2,76.74A47.21,47.21,0,0,1,64.56,92l-4.62-3.36L65.5,71.52h18Z"/><path class="cls-6" d="M36.06,88.64,31.44,92A47.21,47.21,0,0,1,10.8,76.74l1.7-5.22h18Z"/><path class="cls-6" d="M85.2,76.74A47.21,47.21,0,0,1,64.56,92l-4.62-3.36L61,85.25c1.07-.3,2.13-.63,3.17-1A46.37,46.37,0,0,0,83.36,71.52h.14Z"/><path class="cls-4" d="M83.36,71.52A46.37,46.37,0,0,1,64.21,84.26c-1,.36-2.1.69-3.17,1L65.5,71.52Z"/><path class="cls-6" d="M36.06,88.64,31.44,92A47.21,47.21,0,0,1,10.8,76.74l1.7-5.22h.15A46.27,46.27,0,0,0,31.79,84.26c1,.36,2.1.69,3.17,1Z"/><path class="cls-4" d="M35,85.25c-1.07-.3-2.13-.63-3.17-1A46.27,46.27,0,0,1,12.65,71.52H30.5Z"/><path class="cls-7" d="M96,47.39a49.39,49.39,0,0,0-.32-5,47.91,47.91,0,0,0-7.26-20.29h0A48,48,0,0,0,61.24,1.84,48.48,48.48,0,0,0,48,0a49.8,49.8,0,0,0-6.69.46,48.88,48.88,0,0,0-6.55,1.38h0A48,48,0,0,0,.06,45.7c0,.56,0,1.13,0,1.69H0c0,.19,0,.39,0,.6A47.56,47.56,0,0,0,10,77.35a49.89,49.89,0,0,0,4.43,5A48,48,0,0,0,73.8,88.48a47.11,47.11,0,0,0,5.83-4.4A47.68,47.68,0,0,0,96,48C96,47.78,96,47.56,96,47.39ZM85.55,74.58l-1.1-3.37a1,1,0,0,0-1-.69H65.94l-7.81-8.39L63.37,46,76.3,40.86,90.41,51.11a1,1,0,0,0,1.18,0L94,49.38A45.39,45.39,0,0,1,85.55,74.58Zm-3.32,4.14c-.42.47-.86.91-1.3,1.36-.28.3-.56.61-.86.89-.5.49-1,.94-1.53,1.4l-.77.7c-.79.67-1.6,1.31-2.43,1.93l-.13.08Q74,86,72.78,86.76c-.3.19-.61.35-.91.54-.58.35-1.16.71-1.76,1-.37.2-.75.38-1.12.57-.55.28-1.1.57-1.66.83-.4.19-.82.35-1.23.53s-.93.4-1.41.59l-3.57-2.61,5.11-15.73H82.77l1.31,4c-.32.41-.66.8-1,1.19S82.53,78.39,82.23,78.72ZM31.31,90.86l-1.4-.58c-.41-.18-.83-.35-1.24-.54-.56-.26-1.1-.54-1.65-.83-.38-.19-.76-.37-1.13-.57-.6-.33-1.17-.68-1.76-1-.3-.18-.61-.35-.91-.54-.82-.53-1.63-1.09-2.42-1.67L20.66,85c-.83-.62-1.64-1.26-2.43-1.93-.26-.22-.51-.46-.76-.69-.52-.46-1-.92-1.54-1.41-.3-.28-.57-.59-.86-.88-.44-.45-.88-.9-1.3-1.37s-.57-.67-.86-1-.67-.78-1-1.19l1.31-4H29.77l5.11,15.73ZM30.06,70.52H12.5a1,1,0,0,0-.95.69l-1.1,3.37A45.39,45.39,0,0,1,2,49.38l2.38,1.73a1,1,0,0,0,1.18,0L19.7,40.86,32.63,46l5.24,16.11ZM2.11,45.31c0-.43,0-.87.07-1.3.06-.65.15-1.29.23-1.94,0-.39.09-.79.15-1.18.11-.73.26-1.44.4-2.15.07-.32.11-.63.18-.94.23-1,.5-2,.8-3,0-.09.06-.18.09-.27.27-.91.57-1.81.91-2.7.12-.34.28-.68.41-1,.26-.63.51-1.27.79-1.88.18-.39.38-.77.56-1.15.28-.56.54-1.12.84-1.67.21-.39.45-.78.68-1.17S8.73,24,9,23.61h4.27l5.11,15.73L5,49.07,2,46.91C2.05,46.38,2.08,45.85,2.11,45.31ZM39.73,61.38,34.61,45.65,47.92,36,48,36l.08,0,13.31,9.67L56.27,61.38ZM35.82,3.64c.47-.13,1-.24,1.43-.35s.92-.24,1.39-.33,1-.17,1.43-.25,1.14-.21,1.72-.29l.81-.09a47.57,47.57,0,0,1,10.8,0l.81.09c.58.08,1.15.19,1.73.29s1,.15,1.42.25.93.22,1.4.33,1,.22,1.42.35l1.2,3.7L48,17.07,34.62,7.34ZM87,23.61c.28.44.53.88.79,1.33s.46.76.67,1.15c.3.56.58,1.14.86,1.72.18.36.37.72.54,1.09.3.67.57,1.35.85,2,.11.29.24.57.35.86a45.53,45.53,0,0,1,1.8,6c0,.17.07.34.1.51.18.86.35,1.72.49,2.58,0,.31.07.62.11.93.1.73.2,1.46.26,2.2,0,.41.05.82.07,1.23s.06,1.09.08,1.63l-3,2.16L77.62,39.34l5.11-15.73Zm-1.31-2H82a1,1,0,0,0-1,.69L75.63,39,62.7,44.13,49,34.17V18.82L63.15,8.53a1,1,0,0,0,.36-1.11l-1-3.09A46.07,46.07,0,0,1,85.69,21.61ZM33.49,4.33l-1,3.09a1,1,0,0,0,.36,1.11L47,18.82V34.17l-13.7,10L20.37,39,15,22.3a1,1,0,0,0-.95-.69H10.31A46.07,46.07,0,0,1,33.49,4.33Zm.08,87.35,3.08-2.24A1,1,0,0,0,37,88.33L31.63,71.76l7.81-8.38H56.56l7.81,8.38L59,88.33a1,1,0,0,0,.36,1.11l3.08,2.24a46,46,0,0,1-28.86,0Z"/></svg>